<?xml version="1.0" encoding="UTF-8"?>
<svg version="1.1" xmlns="http://www.w3.org/2000/svg" width="317" height="95">
<path d="M0 0 C1.43279297 -0.00386719 1.43279297 -0.00386719 2.89453125 -0.0078125 C5.1875 0.125 5.1875 0.125 6.1875 1.125 C6.22830783 3.12458364 6.23004356 5.12545254 6.1875 7.125 C-1.58930143 9.45804043 -9.04655233 10.34120231 -17.15429688 10.64257812 C-20.85442797 10.82706255 -22.66008077 11.02338718 -25.8125 13.125 C-26.51605115 15.70179229 -27.05767532 18.12989097 -27.5 20.75 C-27.62955078 21.45640625 -27.75910156 22.1628125 -27.89257812 22.890625 C-28.21051563 24.63339354 -28.51299829 26.37896874 -28.8125 28.125 C-27.62914062 27.9084375 -26.44578125 27.691875 -25.2265625 27.46875 C-9.10704949 24.59836194 -9.10704949 24.59836194 -0.8125 25.125 C0.1875 26.125 0.1875 26.125 0.25 29.1875 C0.229375 30.156875 0.20875 31.12625 0.1875 32.125 C-5.74602816 34.51923066 -11.88506545 35.0225105 -18.1875 35.75 C-19.30511719 35.8840625 -20.42273438 36.018125 -21.57421875 36.15625 C-24.31964864 36.48476298 -27.06599053 36.80563843 -29.8125 37.125 C-30.4725 42.405 -31.1325 47.685 -31.8125 53.125 C-29.92144531 52.83625 -28.03039062 52.5475 -26.08203125 52.25 C-23.59638316 51.87480784 -21.11070447 51.4998184 -18.625 51.125 C-17.37912109 50.93421875 -16.13324219 50.7434375 -14.84960938 50.546875 C-13.64755859 50.36640625 -12.44550781 50.1859375 -11.20703125 50 C-9.54957886 49.74863281 -9.54957886 49.74863281 -7.85864258 49.4921875 C-5.10779036 49.16059483 -2.57430189 48.90199548 0.1875 49.125 C2.1875 51.125 2.1875 51.125 2.3125 53.75 C2.27125 54.53375 2.23 55.3175 2.1875 56.125 C-1.03792722 57.98219477 -3.82042421 58.55146531 -7.50390625 58.9765625 C-8.61443359 59.10546875 -9.72496094 59.234375 -10.86914062 59.3671875 C-12.02607422 59.49351563 -13.18300781 59.61984375 -14.375 59.75 C-16.06979492 59.95109375 -16.06979492 59.95109375 -17.79882812 60.15625 C-36.52413839 62.26918081 -36.52413839 62.26918081 -40.8125 60.125 C-41.10261227 54.61286688 -40.64179812 49.78070046 -39.5 44.375 C-35.00009946 24.37445739 -35.00009946 24.37445739 -35.8125 4.125 C-33.44214465 2.93982233 -31.65715902 2.84342142 -29.015625 2.625 C-28.0565625 2.5425 -27.0975 2.46 -26.109375 2.375 C-24.60117187 2.25125 -24.60117187 2.25125 -23.0625 2.125 C-15.38338168 1.48507347 -7.69062683 -0.02104139 0 0 Z " fill="#010101" transform="translate(49.8125,19.875)"/>
<path d="M0 0 C1.75 1.875 1.75 1.875 3 4 C5.08334635 5.2516467 5.08334635 5.2516467 7 6 C7.14187578 11.99819274 6.46709856 17.67733387 5.53515625 23.59570312 C4.80970299 28.92053005 5.23332478 32.89441974 7 38 C7.99 38.66 8.98 39.32 10 40 C9.625 42.4375 9.625 42.4375 9 45 C6.29120665 46.35439668 3.99066732 46.06501451 1 46 C-1.74522883 41.57221156 -3.48474397 38.28137429 -4 33 C-4.3403125 33.44730469 -4.680625 33.89460938 -5.03125 34.35546875 C-9.19848129 39.5534248 -13.62764314 44.11400347 -20.37109375 45.48046875 C-24.26590784 45.71709949 -26.3376002 45.46852669 -29.5625 43.1875 C-32.16801138 37.41006172 -31.84366771 32.01698682 -30.15234375 25.96875 C-25.55429125 13.87353394 -14.82039564 -2.29181376 0 0 Z M-8.6875 8.25 C-15.27399145 12.97580761 -20.63127562 21.30164577 -23 29 C-23.25197243 32.79252787 -23.25197243 32.79252787 -23 36 C-20.59729832 36.8790372 -19.47903733 37.21828299 -17.10546875 36.13671875 C-10.29400021 30.98996757 -3.5420936 23.67427648 -2 15 C-2.29891234 11.23257221 -2.29891234 11.23257221 -3 8 C-5.99076184 6.6215131 -5.99076184 6.6215131 -8.6875 8.25 Z " fill="#010101" transform="translate(262,34)"/>
<path d="M0 0 C2.625 -0.1875 2.625 -0.1875 5 0 C8.0320195 6.06403901 5.77691297 15.47948041 5 22 C5.4846875 21.07058594 5.969375 20.14117187 6.46875 19.18359375 C14.18675038 4.7821045 14.18675038 4.7821045 21 1 C24.75 0.3125 24.75 0.3125 28 1 C31.9439633 4.0569381 32.73755209 6.80284329 33.625 11.625 C33.86089844 12.85734375 34.09679687 14.0896875 34.33984375 15.359375 C34.66662109 17.16148438 34.66662109 17.16148438 35 19 C35.39229631 20.95904494 35.78760892 22.91749123 36.1875 24.875 C36.45936489 26.24979641 36.73064586 27.62470947 37 29 C40.10540926 30.21081851 40.10540926 30.21081851 44 30 C43.6875 33.375 43.6875 33.375 43 37 C40.05916436 38.96055709 39.31872048 39.31214545 36 39.375 C35.319375 39.40335938 34.63875 39.43171875 33.9375 39.4609375 C32 39 32 39 30.31640625 37.28515625 C28.87878592 34.78958386 28.37716311 32.90110162 27.9375 30.0625 C27.78410156 29.10859375 27.63070312 28.1546875 27.47265625 27.171875 C27.31667969 26.12515625 27.16070312 25.0784375 27 24 C26.81308594 22.80890625 26.62617188 21.6178125 26.43359375 20.390625 C25.9451575 17.26190046 25.46803204 14.13183142 25 11 C21.24522904 12.24739035 19.35236888 13.26380532 17.25 16.625 C16.50556641 17.80835938 16.50556641 17.80835938 15.74609375 19.015625 C13.1409994 23.46817999 10.61776585 27.96727634 8.15917969 32.50244141 C7.7934082 33.16937012 7.42763672 33.83629883 7.05078125 34.5234375 C6.72762939 35.12075684 6.40447754 35.71807617 6.0715332 36.33349609 C4.87060787 38.20123734 3.7298668 39.60133842 2 41 C-3.43478261 40.56521739 -3.43478261 40.56521739 -5 39 C-5.30922154 31.30201102 -4.47980943 23.76896898 -3.625 16.125 C-3.49867187 14.90296875 -3.37234375 13.6809375 -3.2421875 12.421875 C-3.11328125 11.25398438 -2.984375 10.08609375 -2.8515625 8.8828125 C-2.73635254 7.82465332 -2.62114258 6.76649414 -2.50244141 5.67626953 C-2 3 -2 3 0 0 Z M3 24 C4 26 4 26 4 26 Z " fill="#010101" transform="translate(115,38)"/>
<path d="M0 0 C4.25540522 3.85955358 6.31696566 6.7848897 7.10546875 12.4296875 C7.49770685 21.44056282 5.54436569 27.79658975 -0.21484375 34.7265625 C-5.52220778 40.32934603 -9.94800004 43.51296559 -17.8125 43.9375 C-21.46469631 43.82818256 -23.93891305 43.54883159 -26.875 41.3125 C-30.90799827 36.55563024 -31.78925858 32.02778715 -31.625 25.9296875 C-30.39889786 16.15152291 -25.4779839 7.90421178 -18.125 1.5 C-12.56262469 -2.57907523 -6.18112379 -2.91562443 0 0 Z M-15.3125 8.4375 C-20.5158701 14.62729097 -23.73493791 20.96659776 -23.125 29.1875 C-22.85596065 31.79581367 -22.56654534 33.10540015 -20.96484375 35.19921875 C-19.22304062 36.75577922 -19.22304062 36.75577922 -16.0625 36.5 C-9.93587431 34.76412272 -6.72493776 31.24831765 -2.875 26.3125 C-0.38848471 21.50093146 -0.30845398 15.67182814 -1.3125 10.4375 C-3.15107787 8.22370215 -4.61851853 6.78449073 -7.1875 5.5 C-10.71418589 5.39627394 -12.39065182 6.45064324 -15.3125 8.4375 Z " fill="#010101" transform="translate(194.3125,36.5625)"/>
<path d="M0 0 C2.5625 0.1875 2.5625 0.1875 4.5625 2.1875 C4.76782419 6.81218293 3.6393944 11.25128624 2.0625 15.5625 C0.23546284 20.64058858 -0.40064692 25.79773724 -0.4375 31.1875 C-0.1075 31.8475 0.2225 32.5075 0.5625 33.1875 C6.12736565 32.21364851 9.01027756 29.30907114 12.5390625 25.171875 C15.41026413 20.93712973 17.33901803 16.43145761 19.21655273 11.68505859 C21.85844344 5.03575142 21.85844344 5.03575142 24.5625 3.1875 C27.25 3.5 27.25 3.5 29.5625 4.1875 C29.41987588 5.7502962 29.27324489 7.31272696 29.125 8.875 C29.04378906 9.74511719 28.96257812 10.61523438 28.87890625 11.51171875 C28.5625 14.1875 28.5625 14.1875 28.0390625 16.64453125 C27.49788645 19.53228215 27.39373201 22.25032136 27.375 25.1875 C27.36082031 26.198125 27.34664062 27.20875 27.33203125 28.25 C27.58936417 31.52990429 28.15093345 34.77593345 30.5625 37.1875 C30.6875 39.6875 30.6875 39.6875 30.5625 42.1875 C29.5625 43.1875 29.5625 43.1875 26.6875 43.5 C23.5625 43.1875 23.5625 43.1875 21.94140625 41.49609375 C20.40914881 38.93075622 19.87715692 36.8731866 19.375 33.9375 C19.21644531 33.04546875 19.05789062 32.1534375 18.89453125 31.234375 C18.78496094 30.55890625 18.67539063 29.8834375 18.5625 29.1875 C17.97082031 29.87457031 17.37914063 30.56164062 16.76953125 31.26953125 C15.97933594 32.17058594 15.18914062 33.07164063 14.375 34 C13.59769531 34.89332031 12.82039063 35.78664062 12.01953125 36.70703125 C8.61423946 40.14480595 5.46400554 42.60854961 0.5 42.6875 C-3.4375 42.1875 -3.4375 42.1875 -5.875 39.9375 C-10.73634301 31.38153631 -7.9850845 21.85513964 -6 12.75 C-5.76990234 11.64978516 -5.53980469 10.54957031 -5.30273438 9.41601562 C-3.35116512 0.25778193 -3.35116512 0.25778193 0 0 Z " fill="#010101" transform="translate(70.4375,36.8125)"/>
<path d="M0 0 C1.30710937 -0.03738281 2.61421875 -0.07476562 3.9609375 -0.11328125 C8.14845842 0.37332832 9.72287786 1.31798821 12.625 4.3125 C14.21932723 8.69689988 13.58486923 12.1012535 11.8359375 16.2890625 C8.57153813 21.74376855 2.58877521 26.28227865 -3.375 28.3125 C-9.33908597 28.2114138 -9.33908597 28.2114138 -12.05859375 25.8515625 C-14.0987074 21.91662519 -13.80893482 18.1144505 -13.75 13.75 C-13.76160156 12.88697266 -13.77320313 12.02394531 -13.78515625 11.13476562 C-13.78128906 10.30525391 -13.77742188 9.47574219 -13.7734375 8.62109375 C-13.77005371 7.86626709 -13.76666992 7.11144043 -13.76318359 6.33374023 C-13.26940038 3.76265143 -12.42143465 2.90427157 -10.375 1.3125 C-6.79351219 0.11867073 -3.77551474 0.07046639 0 0 Z " fill="#B63EB9" transform="translate(301.375,47.6875)"/>
<path d="M0 0 C2.5 -0.3125 2.5 -0.3125 5 0 C5.66 0.66 6.32 1.32 7 2 C6.73891097 6.69960258 5.76361153 10.81003561 4.4375 15.3125 C2.7061589 21.79670535 2.79973088 28.02214914 3.02319336 34.67700195 C3.08186659 36.78386532 3.04817493 38.89287044 3 41 C1 43 1 43 -1.5 43.25 C-4 43 -4 43 -6 41 C-7.23696206 32.1111331 -5.56559671 23.07514866 -4.125 14.3125 C-3.95145996 13.2488623 -3.77791992 12.18522461 -3.59912109 11.08935547 C-2.25890151 3.38835227 -2.25890151 3.38835227 0 0 Z " fill="#010101" transform="translate(216,37)"/>
<path d="M0 0 C0.66 0.66 1.32 1.32 2 2 C1.67010309 8.92783505 1.67010309 8.92783505 -0.25 12 C-2.58483133 13.33418933 -4.35786868 13.21422686 -7 13 C-9.02043112 8.95913777 -9.25885413 6.35757199 -8 2 C-4.77626323 -0.14915785 -3.73296326 -0.38286803 0 0 Z " fill="#010101" transform="translate(228,13)"/>
<path d="M0 0 C0.70189453 0.00451172 1.40378906 0.00902344 2.12695312 0.01367188 C3.85550538 0.02543073 5.58401365 0.04336546 7.3125 0.0625 C7.3125 0.3925 7.3125 0.7225 7.3125 1.0625 C6.22582031 1.15337891 6.22582031 1.15337891 5.1171875 1.24609375 C0.14133467 1.67733433 -4.77430391 2.13297641 -9.6875 3.0625 C-10.78256492 6.34769475 -10.78710608 8.79913415 -10.75 12.25 C-10.74097656 13.33667969 -10.73195313 14.42335938 -10.72265625 15.54296875 C-10.71105469 16.37441406 -10.69945312 17.20585938 -10.6875 18.0625 C-10.0275 18.3925 -9.3675 18.7225 -8.6875 19.0625 C-8.6875 18.4025 -8.6875 17.7425 -8.6875 17.0625 C-8.0275 17.3925 -7.3675 17.7225 -6.6875 18.0625 C-6.48609524 21.68778568 -6.82973235 23.92751708 -8.6875 27.0625 C-12.5625 25.3125 -12.5625 25.3125 -13.6875 23.0625 C-13.9505026 19.92280689 -13.9189599 16.77450019 -13.9375 13.625 C-13.958125 12.75294922 -13.97875 11.88089844 -14 10.98242188 C-14.00515625 10.14388672 -14.0103125 9.30535156 -14.015625 8.44140625 C-14.0249707 7.6738501 -14.03431641 6.90629395 -14.04394531 6.11547852 C-13.59052568 3.50396774 -12.76265528 2.66688558 -10.6875 1.0625 C-7.06882441 -0.1437252 -3.76243749 -0.04566918 0 0 Z " fill="#B13DB1" transform="translate(301.6875,47.9375)"/>
<path d="M0 0 C0.70189453 0.00451172 1.40378906 0.00902344 2.12695312 0.01367188 C3.85550538 0.02543073 5.58401365 0.04336546 7.3125 0.0625 C7.3125 0.3925 7.3125 0.7225 7.3125 1.0625 C6.63445312 1.09988281 5.95640625 1.13726562 5.2578125 1.17578125 C-1.41816814 1.64735329 -7.36458447 2.88171135 -13.6875 5.0625 C-9.98092798 -0.40910631 -6.20436705 -0.07530978 0 0 Z " fill="#A650A4" transform="translate(301.6875,47.9375)"/>
<path d="M0 0 C2.07345124 3.42271915 2.07345124 3.42271915 1.75 5.96484375 C-0.23307658 11.18074831 -2.44846753 13.76335469 -7 17 C-7.33 16.34 -7.66 15.68 -8 15 C-7.236875 14.566875 -6.47375 14.13375 -5.6875 13.6875 C-1.76846175 9.76846175 -1.12660241 5.31243411 0 0 Z " fill="#B766B8" transform="translate(313,54)"/>
<path d="M0 0 C0.33 0 0.66 0 1 0 C1.33 5.28 1.66 10.56 2 16 C2.66 16 3.32 16 4 16 C4.33 17.32 4.66 18.64 5 20 C1.125 18.25 1.125 18.25 0 16 C-0.07181821 13.28239892 -0.09299506 10.59140612 -0.0625 7.875 C-0.05798828 7.12089844 -0.05347656 6.36679687 -0.04882812 5.58984375 C-0.03703499 3.72652873 -0.01909942 1.86325445 0 0 Z " fill="#A851A7" transform="translate(288,55)"/>
</svg>
