<?xml version="1.0" encoding="UTF-8"?>
<svg version="1.1" xmlns="http://www.w3.org/2000/svg" width="1350" height="619">
<path d="M0 0 C445.5 0 891 0 1350 0 C1350 204.27 1350 408.54 1350 619 C904.5 619 459 619 0 619 C0 414.73 0 210.46 0 0 Z " fill="#FEFEFE" transform="translate(0,0)"/>
<path d="M0 0 C4.30639001 2.93895811 8.3223769 5.96713069 10 11 C10.81648196 20.78439857 10.00089474 26.9438408 3.94140625 34.6015625 C-0.53502438 39.8404206 -4.46378247 44.30421927 -11.59765625 45.3984375 C-20.11052777 45.31749102 -20.11052777 45.31749102 -24 42 C-27.7186595 38.11545234 -28.54799602 35.67005529 -28.5 30.3125 C-28.12868512 19.52186448 -24.75243191 12.83433273 -17.296875 5.07421875 C-12.55650028 0.79337015 -6.44649928 -1.89255025 0 0 Z " fill="#353434" transform="translate(202,33)"/>
<path d="M0 0 C0.66 0.99 1.32 1.98 2 3 C3.63495707 4.05104383 5.29883624 5.05988318 7 6 C6.9278125 6.57363281 6.855625 7.14726563 6.78125 7.73828125 C6.08314851 14.12784902 5.8049349 20.51466722 5.6875 26.9375 C5.64302734 28.18043823 5.64302734 28.18043823 5.59765625 29.44848633 C5.48370628 34.35906656 5.48370628 34.35906656 8.03515625 38.42578125 C8.68355469 38.94527344 9.33195312 39.46476562 10 40 C9.75 42.25 9.75 42.25 9 44 C2.54673998 45.33935585 2.54673998 45.33935585 0.1875 43.875 C-2.40762334 39.77743684 -3.33386528 35.77396546 -4 31 C-4.43570312 31.53109375 -4.87140625 32.0621875 -5.3203125 32.609375 C-10.02962502 38.19531279 -14.07775326 42.72573733 -21.5625 44 C-25.01950741 44.25650645 -25.86928834 44.07624847 -29 42.25 C-31.95219208 38.92878391 -32.41246406 35.8269945 -32.33984375 31.4375 C-30.77094105 20.18468067 -23.43886716 10.1978262 -14.75390625 3.22265625 C-9.99300013 -0.09619367 -5.79965175 -1.88825871 0 0 Z " fill="#373636" transform="translate(275,33)"/>
<path d="M0 0 C0.99 0.66 1.98 1.32 3 2 C2.125 6.875 2.125 6.875 1 8 C-5.74255287 9.04494315 -12.47340462 9.30241494 -19.28515625 9.51757812 C-20.09339844 9.55173828 -20.90164062 9.58589844 -21.734375 9.62109375 C-22.45850586 9.6461499 -23.18263672 9.67120605 -23.92871094 9.69702148 C-26.36952149 10.05405188 -27.95043543 10.61935986 -30 12 C-30.90538305 13.79565965 -30.90538305 13.79565965 -31.265625 15.9140625 C-31.51699219 17.05488281 -31.51699219 17.05488281 -31.7734375 18.21875 C-31.93070313 19.0128125 -32.08796875 19.806875 -32.25 20.625 C-32.42273437 21.42679688 -32.59546875 22.22859375 -32.7734375 23.0546875 C-33.19742091 25.03327675 -33.60070744 27.01628056 -34 29 C-32.72125 28.7834375 -31.4425 28.566875 -30.125 28.34375 C-28.41672174 28.06216567 -26.70838525 27.78093446 -25 27.5 C-23.74123047 27.28537109 -23.74123047 27.28537109 -22.45703125 27.06640625 C-7.94421729 24.70385514 -7.94421729 24.70385514 -3 28 C-3.1875 29.875 -3.1875 29.875 -4 32 C-8.62919757 34.48831107 -13.86778499 34.85960968 -19 35.5625 C-20.77098266 35.81274755 -22.54182108 36.06401843 -24.3125 36.31640625 C-25.13105469 36.43258301 -25.94960938 36.54875977 -26.79296875 36.66845703 C-29.2140413 37.03215355 -31.60826935 37.47680892 -34 38 C-34.309375 39.134375 -34.61875 40.26875 -34.9375 41.4375 C-35.11152344 42.07558594 -35.28554688 42.71367188 -35.46484375 43.37109375 C-36.24763679 47.21649316 -36.60857644 51.09788117 -37 55 C-36.24380371 54.87882812 -35.48760742 54.75765625 -34.70849609 54.6328125 C-31.26474098 54.0837545 -27.81990218 53.54181246 -24.375 53 C-23.18519531 52.80921875 -21.99539062 52.6184375 -20.76953125 52.421875 C-19.61582031 52.24140625 -18.46210937 52.0609375 -17.2734375 51.875 C-15.68668213 51.62363281 -15.68668213 51.62363281 -14.06787109 51.3671875 C-5.95588957 50.39628027 -5.95588957 50.39628027 -2.625 52.5 C-2.08875 52.995 -1.5525 53.49 -1 54 C-1.125 55.875 -1.125 55.875 -2 58 C-7.26982971 60.33072143 -12.76516715 60.65262991 -18.4375 61.125 C-19.40655273 61.2077417 -20.37560547 61.2904834 -21.37402344 61.37573242 C-39.05298752 62.79923723 -39.05298752 62.79923723 -45 62 C-47.64436367 58.0334545 -46.84864917 55.45371082 -46 51 C-45.50571258 48.72791638 -45.00520321 46.45718142 -44.5 44.1875 C-43.31716888 38.84753426 -42.55446667 33.66260171 -42.2109375 28.20703125 C-42 26 -42 26 -41 23 C-40.9193378 21.51876453 -40.89238807 20.03417796 -40.90234375 18.55078125 C-40.90556641 17.70322266 -40.90878906 16.85566406 -40.91210938 15.98242188 C-40.92048828 15.10134766 -40.92886719 14.22027344 -40.9375 13.3125 C-40.94201172 12.41982422 -40.94652344 11.52714844 -40.95117188 10.60742188 C-40.96295017 8.40488013 -40.97939836 6.20247401 -41 4 C-38.3226629 2.66133145 -36.02888996 2.69706381 -33.0390625 2.5 C-31.84539063 2.4175 -30.65171875 2.335 -29.421875 2.25 C-28.16890625 2.1675 -26.9159375 2.085 -25.625 2 C-23.15863577 1.83659699 -20.69247645 1.67006303 -18.2265625 1.5 C-17.12908691 1.4278125 -16.03161133 1.355625 -14.90087891 1.28125 C-1.13050951 -0.05383379 -1.13050951 -0.05383379 0 0 Z " fill="#373737" transform="translate(61,17)"/>
<path d="M0 0 C2.5 -0.3125 2.5 -0.3125 5 0 C7 2 7 2 7.23046875 5.01171875 C7.20919922 6.83123047 7.20919922 6.83123047 7.1875 8.6875 C7.17783203 10.48767578 7.17783203 10.48767578 7.16796875 12.32421875 C7.00268309 15.94128401 6.57334331 19.42692448 6 23 C6.53109375 22.04738281 7.0621875 21.09476563 7.609375 20.11328125 C8.32268231 18.84622221 9.03623716 17.57930249 9.75 16.3125 C10.09804687 15.68666016 10.44609375 15.06082031 10.8046875 14.41601562 C13.90532278 8.93248472 16.9660464 3.52584104 23 1 C27.55363694 0.91868505 29.38954693 1.45737505 32.8125 4.5 C35.60668741 8.36255319 36.29730544 12.36085146 37 17 C37.18433594 18.1446875 37.36867187 19.289375 37.55859375 20.46875 C38.05892539 23.64326798 38.53794968 26.81971747 39 30 C40.98 30 42.96 30 45 30 C46.30892449 34.402746 46.30892449 34.402746 45.0625 36.8125 C41.8088687 38.68580287 38.60003506 38.61818784 35 38 C32.22208279 36.39173214 31.29457131 35.04402486 30.42578125 31.96484375 C30.08719991 30.29902357 29.78214538 28.62617348 29.50390625 26.94921875 C28.92402218 23.55532364 28.16089424 20.22693034 27.375 16.875 C26.98441406 15.20050781 26.98441406 15.20050781 26.5859375 13.4921875 C26.39257812 12.66976562 26.19921875 11.84734375 26 11 C23.34487804 11.35786426 22.21287647 11.77191807 20.359375 13.7578125 C16.40463693 19.57473306 12.98059934 25.53335383 9.84082031 31.82080078 C7.98886771 35.45876959 6.23321472 38.45593663 3 41 C-2.3125 40.6875 -2.3125 40.6875 -4 39 C-4.09969841 37.25234548 -4.12968045 35.5004897 -4.125 33.75 C-4.12757812 32.79609375 -4.13015625 31.8421875 -4.1328125 30.859375 C-4 28 -4 28 -3.51953125 25.7734375 C-2.55610008 20.63030869 -2.63468817 15.35052589 -2.48242188 10.12890625 C-2.44826172 9.25878906 -2.41410156 8.38867188 -2.37890625 7.4921875 C-2.3538501 6.70183105 -2.32879395 5.91147461 -2.30297852 5.09716797 C-2 3 -2 3 0 0 Z " fill="#393939" transform="translate(123,36)"/>
<path d="M0 0 C3.29714793 0.32971479 4.6226839 0.6226839 7 3 C6.79006958 7.72343448 5.43182468 11.77766173 3.9375 16.25 C1.98731366 22.3258513 1.5427541 27.66206375 2 34 C5.32877245 34.08321931 7.40636206 33.49705399 9.96875 31.3515625 C16.03813389 24.88533428 19.54135286 17.51906105 23.1171875 9.4921875 C25.58191625 4.1614951 25.58191625 4.1614951 27.9921875 3.23046875 C30 3 30 3 32 4 C32.12515106 10.50785526 32.12515106 10.50785526 31.50878906 12.93164062 C30.50090868 17.02893553 30.77278669 21.30155148 30.75 25.5 C30.729375 26.45003906 30.70875 27.40007813 30.6875 28.37890625 C30.68234375 29.29542969 30.6771875 30.21195313 30.671875 31.15625 C30.6625293 31.98962891 30.65318359 32.82300781 30.64355469 33.68164062 C31.07743515 36.50364672 32.26052903 37.78404028 34 40 C34 40.99 34 41.98 34 43 C30.6875 43.6875 30.6875 43.6875 27 44 C23.61628298 41.72249816 23.17610203 38.63702328 22.3125 34.8125 C22.06113281 33.72582031 21.80976562 32.63914063 21.55078125 31.51953125 C21.36902344 30.68808594 21.18726562 29.85664062 21 29 C20.49210937 29.67546875 19.98421875 30.3509375 19.4609375 31.046875 C10.68612506 42.41798025 10.68612506 42.41798025 3.4375 43.5625 C-0.88982776 42.85439182 -2.28197669 41.35755821 -5 38 C-8.78692155 30.42615689 -5.89793826 18.05390704 -4.125 10.125 C-3.95137939 9.34640625 -3.77775879 8.5678125 -3.59887695 7.765625 C-2.27750453 2.27750453 -2.27750453 2.27750453 0 0 Z " fill="#383838" transform="translate(76,34)"/>
<path d="M0 0 C3.14618934 2.25919138 3.7583807 4.23219921 4.43359375 7.9765625 C3.92164475 13.88623465 1.04095435 18.11352166 -3.30859375 22 C-6.90784741 24.65273712 -10.03729001 26.53556719 -14.56640625 26.7890625 C-18.62745541 26.10074908 -19.89067792 25.47258217 -22.25390625 22.1640625 C-23.42826289 18.64099258 -23.51362743 15.3964497 -23.56640625 11.7265625 C-23.60378906 10.40785156 -23.64117187 9.08914062 -23.6796875 7.73046875 C-23.25390625 4.1640625 -23.25390625 4.1640625 -21.421875 1.75390625 C-15.8709986 -2.31673644 -6.32347831 -2.34527618 0 0 Z " fill="#B84EBA" transform="translate(326.25390625,46.8359375)"/>
<path d="M0 0 C3.84159213 0.71140595 5.03467922 1.56458052 7.375 4.625 C9.26864102 8.41228204 8.98734072 12.50936383 8.375 16.625 C5.74715897 22.50948687 1.08778289 28.47640985 -4.625 31.625 C-7.65478532 32.28484435 -9.4718113 32.10599489 -12.625 31.625 C-15.77390315 26.90164528 -15.27769179 22.1493295 -14.625 16.625 C-12.27241727 9.38550722 -7.99296126 1.37809677 0 0 Z " fill="#F9F9F9" transform="translate(196.625,39.375)"/>
<path d="M0 0 C1.89826332 3.79652665 0.89557918 7.97834254 0 12 C-3.10026067 19.40062225 -8.32098588 25.55119581 -15 30 C-17.71484375 30.77734375 -17.71484375 30.77734375 -20 31 C-21 30 -21 30 -21.28515625 26.37890625 C-21.22279134 21.93713855 -19.74663158 18.67236531 -17.4375 14.9375 C-17.07833496 14.33333252 -16.71916992 13.72916504 -16.34912109 13.10668945 C-12.37698996 6.63517119 -8.0762066 0 0 0 Z " fill="#F7F7F7" transform="translate(272,39)"/>
<path d="M0 0 C2.31 0.33 4.62 0.66 7 1 C8.25148033 5.31681507 7.62417137 7.75532883 6.125 11.9375 C3.25946585 21.17417021 3.27191367 30.4799895 3.1418457 40.08911133 C3 42 3 42 2 43 C-0.4375 43.1875 -0.4375 43.1875 -3 43 C-5 41 -5 41 -5.265625 38.5234375 C-5.2001834 25.33695574 -3.61085844 12.71022171 0 0 Z " fill="#383838" transform="translate(227,35)"/>
<path d="M0 0 C0.66 0.66 1.32 1.32 2 2 C1.81435814 5.40343405 1.62103302 8.03739882 -0.25 10.9375 C-2.58371852 12.35440053 -4.32136078 12.21718696 -7 12 C-8.8454602 8.88578592 -9.46369062 6.61678684 -9 3 C-6.73157826 -0.65467947 -4.03373275 -0.4291205 0 0 Z " fill="#393837" transform="translate(240,10)"/>
</svg>
